<svg width="177" height="90" viewBox="0 0 177 90" fill="none" xmlns="http://www.w3.org/2000/svg">
<path d="M91.8056 0.599454C85.0711 -0.642284 78.1236 0.0537754 71.7671 2.60709C67.1323 4.46637 66.5575 10.2987 69.8407 13.3265L87.862 29.9355L86.3602 37.4609L78.8721 38.9566L62.2852 20.8935C59.2662 17.6008 53.4558 18.1877 51.6019 22.8307C49.0546 29.2059 48.3595 36.1741 49.597 42.9291C50.8345 49.684 53.9541 55.9493 58.5946 61H81.6164C81.6164 61 72.9912 59.6751 69.4392 56.9264C65.8872 54.1777 63.108 50.551 61.3737 46.4013C59.6394 42.2516 59.0095 37.7213 59.5458 33.2541L72.72 47.5987C73.4716 48.4185 74.4208 49.0307 75.4764 49.3763C76.5321 49.722 77.6586 49.7894 78.7478 49.5722L90.9174 47.1468C92.1721 46.8966 93.3249 46.2791 94.2299 45.3723C95.135 44.4656 95.7519 43.3101 96.0027 42.052L98.4366 29.8264C98.8819 27.6088 98.1362 25.3132 96.4687 23.7759L82.1605 10.5844H82.1553C86.6103 10.0434 91.1291 10.673 95.2685 12.4113C99.4078 14.1497 103.026 16.9372 105.767 20.5004C108.508 24.0635 110.279 28.2801 110.906 32.7366C111.533 37.1931 110.994 41.7365 109.343 45.9211C108.843 47.1907 108.751 48.5851 109.081 49.9094C109.321 50.8748 113.467 55.8569 116.098 58.8288C117.327 60.2172 119.198 60.6785 120.974 60.1463C124.753 59.0142 126.119 54.371 123.557 51.3726L119.896 47.0897C121.916 40.5279 122.041 33.5268 120.258 26.8964C118.475 20.2661 114.857 14.2775 109.822 9.62374C104.786 4.96997 98.5401 1.84119 91.8056 0.599454Z" fill="#A855F7"/>
<path d="M0.920628 64.96H13.3526V66.688H8.74463V74.872C8.74463 75.32 8.68063 75.624 8.55263 75.784C8.42463 75.928 8.12863 76 7.66463 76H5.52863V66.688H0.920628V64.96ZM13.2936 76L16.8936 66.736C17.1176 66.144 17.4456 65.688 17.8776 65.368C18.3096 65.032 19.0056 64.864 19.9656 64.864C20.7656 64.864 21.3976 65.016 21.8616 65.32C22.3256 65.624 22.6856 66.096 22.9416 66.736L26.5896 76H23.1096L22.0776 73.336H16.7256L15.7656 76H13.2936ZM17.2536 72.064H21.4776L20.0856 68.176C20.0376 68.016 19.9656 67.872 19.8696 67.744C19.7896 67.6 19.6296 67.528 19.3896 67.528C19.1176 67.528 18.9336 67.6 18.8376 67.744C18.7576 67.872 18.6856 68.016 18.6216 68.176L17.2536 72.064ZM29.1617 73.72C29.5457 73.912 30.0337 74.056 30.6257 74.152C31.2177 74.232 31.8337 74.288 32.4737 74.32C33.1137 74.336 33.6817 74.344 34.1777 74.344C34.3537 74.344 34.5697 74.344 34.8257 74.344C35.0977 74.344 35.3217 74.336 35.4977 74.32C36.0097 74.304 36.4497 74.248 36.8177 74.152C37.1857 74.04 37.4657 73.864 37.6577 73.624C37.8497 73.384 37.9457 73.048 37.9457 72.616C37.9457 72.088 37.8017 71.744 37.5137 71.584C37.2257 71.408 36.7857 71.32 36.1937 71.32C36.0017 71.32 35.7777 71.32 35.5217 71.32C35.2817 71.32 34.9937 71.32 34.6577 71.32C34.3217 71.32 33.9057 71.32 33.4097 71.32C32.9137 71.32 32.4177 71.296 31.9217 71.248C31.4257 71.2 30.9697 71.088 30.5537 70.912C30.1537 70.736 29.8337 70.456 29.5937 70.072C29.3537 69.672 29.2337 69.12 29.2337 68.416C29.2337 67.584 29.3777 66.936 29.6657 66.472C29.9537 65.992 30.3617 65.64 30.8897 65.416C31.4177 65.176 32.0417 65.024 32.7617 64.96C33.4817 64.896 34.2657 64.864 35.1137 64.864C35.6257 64.864 36.1857 64.872 36.7937 64.888C37.4017 64.904 37.9697 64.936 38.4977 64.984C39.0417 65.032 39.4577 65.104 39.7457 65.2C40.1937 65.232 40.5377 65.36 40.7777 65.584C41.0177 65.792 41.1377 66.056 41.1377 66.376C41.1377 66.424 41.1377 66.512 41.1377 66.64C41.1377 66.768 41.1377 66.896 41.1377 67.024C41.1377 67.152 41.1377 67.224 41.1377 67.24C41.0097 67.112 40.7697 67.008 40.4177 66.928C40.0817 66.848 39.6897 66.792 39.2417 66.76C38.8097 66.712 38.3777 66.68 37.9457 66.664C37.5137 66.648 37.1457 66.64 36.8417 66.64H34.9457C34.4497 66.64 34.0177 66.68 33.6497 66.76C33.2977 66.84 33.0177 66.992 32.8097 67.216C32.6177 67.424 32.5217 67.744 32.5217 68.176C32.5217 68.512 32.5857 68.776 32.7137 68.968C32.8577 69.144 33.0577 69.264 33.3137 69.328C33.5857 69.392 33.9217 69.424 34.3217 69.424C35.1697 69.424 35.8657 69.424 36.4097 69.424C36.9697 69.424 37.3617 69.424 37.5857 69.424C38.3377 69.424 38.9937 69.488 39.5537 69.616C40.1137 69.744 40.5457 70.024 40.8497 70.456C41.1697 70.888 41.3297 71.56 41.3297 72.472C41.3297 73.336 41.1457 74.024 40.7777 74.536C40.4257 75.048 39.9377 75.416 39.3137 75.64C38.6897 75.864 37.9617 76 37.1297 76.048C36.5057 76.096 35.9057 76.12 35.3297 76.12C34.7537 76.12 34.1457 76.12 33.5057 76.12C32.9617 76.104 32.4257 76.08 31.8977 76.048C31.3857 76.016 30.9217 75.952 30.5057 75.856C30.1057 75.76 29.7777 75.632 29.5217 75.472C29.2817 75.296 29.1617 75.064 29.1617 74.776V73.72ZM55.2694 76.24C54.8854 76.24 54.5254 76.192 54.1894 76.096C53.8534 76.016 53.5414 75.872 53.2534 75.664C53.1574 75.568 53.0054 75.424 52.7974 75.232C52.6054 75.04 52.3894 74.824 52.1494 74.584C51.9094 74.328 51.6614 74.072 51.4054 73.816C51.1654 73.56 50.9414 73.328 50.7334 73.12C50.5254 72.896 50.3574 72.712 50.2294 72.568C50.0374 72.376 49.8694 72.232 49.7254 72.136C49.5974 72.024 49.4134 71.92 49.1734 71.824L48.3094 71.68V76H45.1174V65.968C45.1174 65.744 45.1334 65.56 45.1654 65.416C45.2134 65.272 45.3014 65.16 45.4294 65.08C45.5734 65 45.8134 64.96 46.1494 64.96C46.5174 64.96 46.8774 64.96 47.2294 64.96C47.5974 64.96 47.9574 64.96 48.3094 64.96C48.3094 65.2 48.3094 65.504 48.3094 65.872C48.3094 66.24 48.3094 66.632 48.3094 67.048C48.3094 67.464 48.3094 67.856 48.3094 68.224C48.3094 68.592 48.3094 68.888 48.3094 69.112L49.1974 68.992C49.3574 68.944 49.4934 68.88 49.6054 68.8C49.7174 68.72 49.8454 68.6 49.9894 68.44C50.2454 68.168 50.5494 67.864 50.9014 67.528C51.2534 67.176 51.6214 66.816 52.0054 66.448C52.3894 66.08 52.7334 65.752 53.0374 65.464C53.3414 65.224 53.6694 65.064 54.0214 64.984C54.3734 64.904 54.7974 64.864 55.2934 64.864C55.6614 64.864 55.9734 64.88 56.2294 64.912C56.4854 64.944 56.7494 64.992 57.0214 65.056C56.9894 65.072 56.8854 65.168 56.7094 65.344C56.5334 65.52 56.3334 65.712 56.1094 65.92C55.9014 66.128 55.7334 66.296 55.6054 66.424C55.0774 66.84 54.5254 67.28 53.9494 67.744C53.3734 68.192 52.8134 68.648 52.2694 69.112C51.7254 69.56 51.2374 69.992 50.8054 70.408L50.8534 69.568C51.2054 69.84 51.6214 70.192 52.1014 70.624C52.5814 71.056 53.1094 71.544 53.6854 72.088C54.2774 72.616 54.8854 73.16 55.5094 73.72C56.1334 74.28 56.7494 74.824 57.3574 75.352C57.2934 75.432 57.1654 75.544 56.9734 75.688C56.7974 75.832 56.5654 75.96 56.2774 76.072C55.9894 76.184 55.6534 76.24 55.2694 76.24ZM60.4502 76C60.4502 74.336 60.4502 72.68 60.4502 71.032C60.4502 69.368 60.4502 67.704 60.4502 66.04C60.4502 65.8 60.4662 65.6 60.4982 65.44C60.5302 65.28 60.6182 65.16 60.7622 65.08C60.9222 65 61.1782 64.96 61.5302 64.96H63.6422V76H60.4502ZM68.0486 76V66.184C68.0486 65.672 68.1126 65.344 68.2406 65.2C68.3686 65.04 68.6886 64.96 69.2006 64.96H72.1766L78.0806 72.736L78.2006 73.12V64.96H80.5526C80.5366 64.992 80.5206 65.08 80.5046 65.224C80.4886 65.368 80.4806 65.528 80.4806 65.704C80.4806 65.88 80.4806 66.032 80.4806 66.16V74.92C80.4806 75.416 80.3926 75.72 80.2166 75.832C80.0406 75.944 79.6966 76 79.1846 76H76.4486L70.4486 68.08L70.3526 67.672V76H68.0486ZM92.1617 73.72C92.5457 73.912 93.0337 74.056 93.6257 74.152C94.2177 74.232 94.8337 74.288 95.4737 74.32C96.1137 74.336 96.6817 74.344 97.1777 74.344C97.3537 74.344 97.5697 74.344 97.8257 74.344C98.0977 74.344 98.3217 74.336 98.4977 74.32C99.0097 74.304 99.4497 74.248 99.8177 74.152C100.186 74.04 100.466 73.864 100.658 73.624C100.85 73.384 100.946 73.048 100.946 72.616C100.946 72.088 100.802 71.744 100.514 71.584C100.226 71.408 99.7857 71.32 99.1937 71.32C99.0017 71.32 98.7777 71.32 98.5217 71.32C98.2817 71.32 97.9937 71.32 97.6577 71.32C97.3217 71.32 96.9057 71.32 96.4097 71.32C95.9137 71.32 95.4177 71.296 94.9217 71.248C94.4257 71.2 93.9697 71.088 93.5537 70.912C93.1537 70.736 92.8337 70.456 92.5937 70.072C92.3537 69.672 92.2337 69.12 92.2337 68.416C92.2337 67.584 92.3777 66.936 92.6657 66.472C92.9537 65.992 93.3617 65.64 93.8897 65.416C94.4177 65.176 95.0417 65.024 95.7617 64.96C96.4817 64.896 97.2657 64.864 98.1137 64.864C98.6257 64.864 99.1857 64.872 99.7937 64.888C100.402 64.904 100.97 64.936 101.498 64.984C102.042 65.032 102.458 65.104 102.746 65.2C103.194 65.232 103.538 65.36 103.778 65.584C104.018 65.792 104.138 66.056 104.138 66.376C104.138 66.424 104.138 66.512 104.138 66.64C104.138 66.768 104.138 66.896 104.138 67.024C104.138 67.152 104.138 67.224 104.138 67.24C104.01 67.112 103.77 67.008 103.418 66.928C103.082 66.848 102.69 66.792 102.242 66.76C101.81 66.712 101.378 66.68 100.946 66.664C100.514 66.648 100.146 66.64 99.8417 66.64H97.9457C97.4497 66.64 97.0177 66.68 96.6497 66.76C96.2977 66.84 96.0177 66.992 95.8097 67.216C95.6177 67.424 95.5217 67.744 95.5217 68.176C95.5217 68.512 95.5857 68.776 95.7137 68.968C95.8577 69.144 96.0577 69.264 96.3137 69.328C96.5857 69.392 96.9217 69.424 97.3217 69.424C98.1697 69.424 98.8657 69.424 99.4097 69.424C99.9697 69.424 100.362 69.424 100.586 69.424C101.338 69.424 101.994 69.488 102.554 69.616C103.114 69.744 103.546 70.024 103.85 70.456C104.17 70.888 104.33 71.56 104.33 72.472C104.33 73.336 104.146 74.024 103.778 74.536C103.426 75.048 102.938 75.416 102.314 75.64C101.69 75.864 100.962 76 100.13 76.048C99.5057 76.096 98.9057 76.12 98.3297 76.12C97.7537 76.12 97.1457 76.12 96.5057 76.12C95.9617 76.104 95.4257 76.08 94.8977 76.048C94.3857 76.016 93.9217 75.952 93.5057 75.856C93.1057 75.76 92.7777 75.632 92.5217 75.472C92.2817 75.296 92.1617 75.064 92.1617 74.776V73.72ZM106.989 64.96H119.421V66.688H114.813V74.872C114.813 75.32 114.749 75.624 114.621 75.784C114.493 75.928 114.197 76 113.733 76H111.597V66.688H106.989V64.96ZM134.701 70.792C134.701 71.64 134.653 72.392 134.557 73.048C134.461 73.704 134.221 74.256 133.837 74.704C133.453 75.152 132.837 75.488 131.989 75.712C131.157 75.936 129.997 76.048 128.509 76.048C127.309 76.048 126.317 75.976 125.533 75.832C124.765 75.688 124.165 75.472 123.733 75.184C123.317 74.896 123.013 74.552 122.821 74.152C122.645 73.736 122.533 73.264 122.485 72.736C122.453 72.208 122.437 71.632 122.437 71.008V66.448C122.437 66.032 122.445 65.72 122.461 65.512C122.493 65.288 122.597 65.144 122.773 65.08C122.949 65 123.237 64.96 123.637 64.96H125.629V71.8C125.629 72.488 125.725 73.008 125.917 73.36C126.125 73.712 126.437 73.952 126.853 74.08C127.285 74.208 127.837 74.272 128.509 74.272C129.581 74.272 130.341 74.088 130.789 73.72C131.253 73.352 131.485 72.72 131.485 71.824V64.96H133.453C133.869 64.96 134.165 65 134.341 65.08C134.517 65.144 134.621 65.288 134.653 65.512C134.685 65.72 134.701 66.032 134.701 66.448V70.792ZM151.645 70.528C151.645 71.76 151.509 72.744 151.237 73.48C150.965 74.216 150.557 74.768 150.013 75.136C149.469 75.488 148.781 75.728 147.949 75.856C147.133 75.968 146.173 76.024 145.069 76.024C144.429 76.024 143.805 76.024 143.197 76.024C142.605 76.024 142.037 76.016 141.493 76C140.949 76 140.437 76 139.957 76C139.493 76 139.085 76 138.733 76V66.52C138.733 65.976 138.829 65.584 139.021 65.344C139.213 65.104 139.605 64.976 140.197 64.96C140.565 64.96 140.981 64.96 141.445 64.96C141.909 64.944 142.381 64.936 142.861 64.936C143.357 64.936 143.845 64.936 144.325 64.936C144.821 64.936 145.261 64.936 145.645 64.936C146.685 64.952 147.581 65.032 148.333 65.176C149.101 65.32 149.725 65.584 150.205 65.968C150.701 66.352 151.061 66.912 151.285 67.648C151.525 68.368 151.645 69.328 151.645 70.528ZM141.925 74.344C142.069 74.344 142.261 74.344 142.501 74.344C142.757 74.344 143.021 74.352 143.293 74.368C143.581 74.368 143.861 74.368 144.133 74.368C144.405 74.368 144.629 74.368 144.805 74.368C145.461 74.368 146.013 74.32 146.461 74.224C146.925 74.128 147.293 73.944 147.565 73.672C147.837 73.384 148.037 72.992 148.165 72.496C148.293 71.984 148.357 71.336 148.357 70.552C148.357 69.448 148.245 68.616 148.021 68.056C147.797 67.48 147.429 67.096 146.917 66.904C146.405 66.696 145.693 66.592 144.781 66.592C144.573 66.592 144.301 66.592 143.965 66.592C143.629 66.592 143.301 66.6 142.981 66.616C142.661 66.616 142.389 66.624 142.165 66.64C142.101 66.72 142.045 66.816 141.997 66.928C141.949 67.024 141.925 67.192 141.925 67.432V74.344ZM155.311 76C155.311 74.336 155.311 72.68 155.311 71.032C155.311 69.368 155.311 67.704 155.311 66.04C155.311 65.8 155.327 65.6 155.359 65.44C155.391 65.28 155.479 65.16 155.623 65.08C155.783 65 156.039 64.96 156.391 64.96H158.503V76H155.311ZM168.886 76.168C167.718 76.168 166.71 76.088 165.862 75.928C165.03 75.768 164.334 75.48 163.774 75.064C163.23 74.648 162.822 74.072 162.55 73.336C162.294 72.584 162.166 71.632 162.166 70.48C162.166 69.296 162.302 68.336 162.574 67.6C162.862 66.848 163.286 66.272 163.846 65.872C164.422 65.456 165.134 65.168 165.982 65.008C166.846 64.848 167.854 64.768 169.006 64.768C170.158 64.768 171.15 64.848 171.982 65.008C172.83 65.168 173.526 65.456 174.07 65.872C174.63 66.288 175.038 66.872 175.294 67.624C175.566 68.36 175.702 69.312 175.702 70.48C175.702 71.648 175.558 72.608 175.27 73.36C174.998 74.096 174.582 74.672 174.022 75.088C173.462 75.504 172.75 75.792 171.886 75.952C171.038 76.096 170.038 76.168 168.886 76.168ZM168.934 74.464C169.51 74.464 170.014 74.416 170.446 74.32C170.894 74.208 171.262 74.008 171.55 73.72C171.838 73.432 172.054 73.032 172.198 72.52C172.342 71.992 172.414 71.312 172.414 70.48C172.414 69.632 172.342 68.952 172.198 68.44C172.054 67.912 171.838 67.504 171.55 67.216C171.262 66.928 170.894 66.736 170.446 66.64C170.014 66.528 169.51 66.472 168.934 66.472C168.342 66.472 167.822 66.528 167.374 66.64C166.942 66.736 166.582 66.928 166.294 67.216C166.022 67.504 165.814 67.912 165.67 68.44C165.526 68.952 165.454 69.632 165.454 70.48C165.454 71.312 165.526 71.992 165.67 72.52C165.814 73.032 166.022 73.432 166.294 73.72C166.582 74.008 166.942 74.208 167.374 74.32C167.822 74.416 168.342 74.464 168.934 74.464Z" fill="#A855F7"/>
<path d="M37.661 87.024C37.045 87.024 36.517 87.024 36.077 87.024C35.637 87.024 35.265 87.02 34.961 87.012C34.665 87.012 34.421 87.008 34.229 87V82.032C34.229 81.8 34.277 81.652 34.373 81.588C34.477 81.524 34.617 81.488 34.793 81.48C35.033 81.48 35.245 81.48 35.429 81.48C35.621 81.472 35.793 81.468 35.945 81.468C36.105 81.46 36.257 81.456 36.401 81.456C36.553 81.456 36.713 81.456 36.881 81.456C37.073 81.456 37.277 81.46 37.493 81.468C37.709 81.468 37.913 81.472 38.105 81.48C38.297 81.48 38.445 81.484 38.549 81.492C38.997 81.524 39.325 81.648 39.533 81.864C39.741 82.08 39.845 82.4 39.845 82.824C39.845 83.136 39.793 83.388 39.689 83.58C39.593 83.764 39.465 83.896 39.305 83.976C39.153 84.048 39.001 84.092 38.849 84.108C39.017 84.108 39.173 84.124 39.317 84.156C39.461 84.188 39.589 84.252 39.701 84.348C39.813 84.436 39.901 84.572 39.965 84.756C40.029 84.932 40.061 85.168 40.061 85.464C40.061 85.824 40.001 86.112 39.881 86.328C39.761 86.536 39.593 86.692 39.377 86.796C39.169 86.892 38.917 86.956 38.621 86.988C38.325 87.012 38.005 87.024 37.661 87.024ZM37.301 86.4C37.501 86.4 37.689 86.396 37.865 86.388C38.049 86.372 38.213 86.336 38.357 86.28C38.501 86.224 38.613 86.128 38.693 85.992C38.781 85.848 38.825 85.652 38.825 85.404C38.825 85.052 38.745 84.808 38.585 84.672C38.433 84.536 38.129 84.468 37.673 84.468H35.861C35.749 84.468 35.673 84.42 35.633 84.324C35.601 84.22 35.585 84.068 35.585 83.868H37.637C37.805 83.868 37.961 83.848 38.105 83.808C38.257 83.76 38.377 83.668 38.465 83.532C38.561 83.388 38.609 83.176 38.609 82.896C38.609 82.632 38.549 82.428 38.429 82.284C38.317 82.14 38.129 82.056 37.865 82.032C37.729 82.024 37.573 82.02 37.397 82.02C37.221 82.012 37.049 82.008 36.881 82.008C36.665 82.008 36.461 82.008 36.269 82.008C36.077 82.008 35.913 82.012 35.777 82.02C35.689 82.02 35.613 82.048 35.549 82.104C35.493 82.152 35.465 82.236 35.465 82.356V86.388C35.537 86.388 35.617 86.392 35.705 86.4C35.793 86.4 35.897 86.4 36.017 86.4C36.145 86.4 36.309 86.4 36.509 86.4C36.717 86.4 36.981 86.4 37.301 86.4ZM42.3815 82.212V85.416C42.3815 85.784 42.4815 86.044 42.6815 86.196C42.8815 86.348 43.1935 86.424 43.6175 86.424C44.0735 86.424 44.3975 86.344 44.5895 86.184C44.7895 86.024 44.8895 85.768 44.8895 85.416V82.212C44.8975 82.212 44.9295 82.212 44.9855 82.212C45.0495 82.212 45.1175 82.212 45.1895 82.212C45.2615 82.212 45.3295 82.212 45.3935 82.212C45.4575 82.212 45.4975 82.212 45.5135 82.212C45.6415 82.212 45.7415 82.22 45.8135 82.236C45.8855 82.244 45.9335 82.28 45.9575 82.344C45.9895 82.4 46.0055 82.496 46.0055 82.632V85.248C46.0055 85.672 45.9415 86.02 45.8135 86.292C45.6855 86.556 45.4455 86.752 45.0935 86.88C44.7495 87 44.2535 87.06 43.6055 87.06C42.9975 87.06 42.5215 87.008 42.1775 86.904C41.8415 86.8 41.6015 86.624 41.4575 86.376C41.3215 86.12 41.2535 85.772 41.2535 85.332V82.632C41.2535 82.464 41.2815 82.352 41.3375 82.296C41.3935 82.24 41.5055 82.212 41.6735 82.212C41.7935 82.212 41.9095 82.212 42.0215 82.212C42.1415 82.212 42.2615 82.212 42.3815 82.212ZM48.3243 87.048C47.9003 87.048 47.6123 86.948 47.4603 86.748C47.3083 86.54 47.2323 86.232 47.2323 85.824L47.2443 82.212H48.3603V85.764C48.3603 86.068 48.3963 86.276 48.4683 86.388C48.5483 86.5 48.6803 86.556 48.8643 86.556C48.9363 86.556 49.0163 86.548 49.1043 86.532C49.1923 86.516 49.2483 86.504 49.2723 86.496V86.952C49.2403 86.96 49.1883 86.972 49.1163 86.988C49.0443 87.004 48.9443 87.016 48.8163 87.024C48.6883 87.04 48.5243 87.048 48.3243 87.048ZM47.8203 81.552C47.6363 81.552 47.4963 81.528 47.4003 81.48C47.3123 81.424 47.2683 81.324 47.2683 81.18C47.2683 81.036 47.3123 80.94 47.4003 80.892C47.4883 80.836 47.6283 80.808 47.8203 80.808C48.0043 80.808 48.1363 80.836 48.2163 80.892C48.3043 80.94 48.3483 81.036 48.3483 81.18C48.3483 81.324 48.3043 81.424 48.2163 81.48C48.1363 81.528 48.0043 81.552 47.8203 81.552ZM51.209 87.048C50.785 87.048 50.481 86.964 50.297 86.796C50.113 86.62 50.021 86.312 50.021 85.872V81.42C50.021 81.292 50.029 81.196 50.045 81.132C50.069 81.06 50.113 81.012 50.177 80.988C50.241 80.956 50.337 80.94 50.465 80.94H51.161C51.161 80.956 51.153 81.02 51.137 81.132C51.129 81.244 51.125 81.376 51.125 81.528V85.728C51.125 86.024 51.161 86.236 51.233 86.364C51.305 86.492 51.441 86.556 51.641 86.556C51.705 86.556 51.781 86.548 51.869 86.532C51.965 86.516 52.025 86.504 52.049 86.496V86.952C52.001 86.96 51.917 86.976 51.797 87C51.677 87.032 51.481 87.048 51.209 87.048ZM52.5955 84.588C52.5955 83.94 52.6835 83.444 52.8595 83.1C53.0355 82.748 53.2915 82.508 53.6275 82.38C53.9635 82.244 54.3675 82.176 54.8395 82.176C54.9835 82.176 55.1475 82.184 55.3315 82.2C55.5235 82.208 55.7115 82.224 55.8955 82.248C56.0795 82.272 56.2435 82.3 56.3875 82.332C56.5315 82.356 56.6315 82.384 56.6875 82.416L56.3875 82.56V80.94H57.4915L57.4795 84.588C57.4795 85.132 57.4395 85.568 57.3595 85.896C57.2795 86.216 57.1475 86.456 56.9635 86.616C56.7795 86.776 56.5235 86.884 56.1955 86.94C55.8675 86.996 55.4595 87.024 54.9715 87.024C54.5155 87.024 54.1315 86.996 53.8195 86.94C53.5155 86.876 53.2715 86.76 53.0875 86.592C52.9115 86.424 52.7835 86.18 52.7035 85.86C52.6315 85.54 52.5955 85.116 52.5955 84.588ZM54.9475 86.412C55.2595 86.412 55.5115 86.392 55.7035 86.352C55.8955 86.304 56.0395 86.22 56.1355 86.1C56.2395 85.98 56.3075 85.812 56.3395 85.596C56.3715 85.372 56.3875 85.084 56.3875 84.732L56.3755 82.896C56.2955 82.888 56.1875 82.88 56.0515 82.872C55.9155 82.864 55.7715 82.86 55.6195 82.86C55.4675 82.852 55.3275 82.848 55.1995 82.848C54.8395 82.848 54.5515 82.896 54.3355 82.992C54.1195 83.08 53.9635 83.252 53.8675 83.508C53.7715 83.764 53.7235 84.132 53.7235 84.612C53.7235 85.124 53.7595 85.508 53.8315 85.764C53.9115 86.02 54.0395 86.192 54.2155 86.28C54.3995 86.368 54.6435 86.412 54.9475 86.412ZM62.0975 87V81.996C62.0975 81.868 62.1015 81.768 62.1095 81.696C62.1175 81.624 62.1535 81.572 62.2175 81.54C62.2815 81.5 62.3815 81.48 62.5175 81.48H67.5095V82.164H63.3335V83.784H67.1615V84.468H63.3335V87H62.0975ZM70.7092 87.072C70.2132 87.072 69.8092 87.048 69.4972 87C69.1852 86.96 68.9452 86.884 68.7772 86.772C68.6092 86.66 68.4932 86.508 68.4292 86.316C68.3732 86.124 68.3452 85.884 68.3452 85.596C68.3452 85.188 68.3892 84.88 68.4772 84.672C68.5732 84.456 68.7332 84.308 68.9572 84.228C69.1892 84.148 69.4972 84.108 69.8812 84.108C70.0812 84.108 70.3012 84.112 70.5412 84.12C70.7892 84.128 71.0252 84.14 71.2492 84.156C71.4812 84.164 71.6812 84.176 71.8492 84.192C72.0252 84.208 72.1412 84.228 72.1972 84.252C72.1972 83.916 72.1692 83.652 72.1132 83.46C72.0572 83.268 71.9652 83.124 71.8372 83.028C71.7172 82.932 71.5652 82.868 71.3812 82.836C71.1972 82.804 70.9812 82.788 70.7332 82.788C70.4612 82.788 70.1892 82.796 69.9172 82.812C69.6532 82.828 69.4012 82.856 69.1612 82.896C68.9292 82.936 68.7372 82.988 68.5852 83.052V82.824C68.5852 82.64 68.6332 82.508 68.7292 82.428C68.8332 82.348 68.9572 82.296 69.1012 82.272C69.2612 82.232 69.4972 82.2 69.8092 82.176C70.1212 82.152 70.4532 82.144 70.8052 82.152C71.2532 82.152 71.6332 82.176 71.9452 82.224C72.2652 82.264 72.5212 82.352 72.7132 82.488C72.9132 82.624 73.0572 82.828 73.1452 83.1C73.2412 83.372 73.2892 83.736 73.2892 84.192V86.64C73.2172 86.792 72.9732 86.904 72.5572 86.976C72.1412 87.04 71.5252 87.072 70.7092 87.072ZM70.7092 86.568C71.0292 86.568 71.2892 86.56 71.4892 86.544C71.6972 86.52 71.8572 86.492 71.9692 86.46C72.0812 86.42 72.1572 86.372 72.1972 86.316V84.66C72.1252 84.636 71.9972 84.616 71.8132 84.6C71.6292 84.576 71.4372 84.556 71.2372 84.54C71.0372 84.524 70.8692 84.516 70.7332 84.516C70.4372 84.516 70.1972 84.536 70.0132 84.576C69.8292 84.616 69.6972 84.708 69.6172 84.852C69.5372 84.996 69.4972 85.22 69.4972 85.524C69.4972 85.772 69.5252 85.972 69.5812 86.124C69.6372 86.276 69.7492 86.388 69.9172 86.46C70.0932 86.532 70.3572 86.568 70.7092 86.568ZM76.3615 87.048C76.2095 87.048 76.0295 87.044 75.8215 87.036C75.6135 87.028 75.4015 87.012 75.1855 86.988C74.9775 86.956 74.7895 86.912 74.6215 86.856C74.5175 86.832 74.4335 86.8 74.3695 86.76C74.3135 86.72 74.2695 86.652 74.2375 86.556C74.2135 86.452 74.2015 86.296 74.2015 86.088C74.4015 86.176 74.6255 86.248 74.8735 86.304C75.1215 86.352 75.3655 86.384 75.6055 86.4C75.8535 86.416 76.0655 86.424 76.2415 86.424C76.4575 86.424 76.6695 86.416 76.8775 86.4C77.0935 86.384 77.2895 86.348 77.4655 86.292C77.6495 86.236 77.7935 86.148 77.8975 86.028C78.0095 85.908 78.0655 85.744 78.0655 85.536C78.0655 85.256 77.9935 85.076 77.8495 84.996C77.7055 84.916 77.5055 84.876 77.2495 84.876H75.9895C75.6775 84.876 75.3855 84.856 75.1135 84.816C74.8495 84.776 74.6335 84.672 74.4655 84.504C74.3055 84.336 74.2255 84.052 74.2255 83.652C74.2255 83.212 74.3335 82.884 74.5495 82.668C74.7655 82.452 75.0695 82.312 75.4615 82.248C75.8615 82.184 76.3295 82.152 76.8655 82.152C77.0655 82.152 77.2975 82.156 77.5615 82.164C77.8335 82.172 78.0855 82.196 78.3175 82.236C78.5095 82.252 78.6615 82.284 78.7735 82.332C78.8935 82.372 78.9815 82.432 79.0375 82.512C79.0935 82.584 79.1215 82.696 79.1215 82.848V83.124C79.0495 83.036 78.9255 82.972 78.7495 82.932C78.5735 82.884 78.3655 82.848 78.1255 82.824C77.8935 82.8 77.6495 82.788 77.3935 82.788C77.1455 82.78 76.9135 82.776 76.6975 82.776C76.4655 82.776 76.2415 82.792 76.0255 82.824C75.8175 82.848 75.6495 82.916 75.5215 83.028C75.3935 83.14 75.3295 83.324 75.3295 83.58C75.3295 83.78 75.3695 83.924 75.4495 84.012C75.5295 84.1 75.6415 84.156 75.7855 84.18C75.9295 84.204 76.0935 84.216 76.2775 84.216H77.5975C77.9175 84.216 78.1975 84.244 78.4375 84.3C78.6775 84.356 78.8655 84.476 79.0015 84.66C79.1375 84.844 79.2055 85.132 79.2055 85.524C79.2055 85.972 79.0815 86.304 78.8335 86.52C78.5855 86.736 78.2495 86.88 77.8255 86.952C77.4015 87.016 76.9135 87.048 76.3615 87.048ZM81.5662 87.036C81.2462 87.036 80.9942 87 80.8102 86.928C80.6342 86.856 80.5062 86.728 80.4262 86.544C80.3462 86.36 80.3062 86.112 80.3062 85.8V82.824H79.8262V82.212H80.3062V81.42C80.3062 81.276 80.3182 81.172 80.3422 81.108C80.3662 81.036 80.4062 80.992 80.4622 80.976C80.5262 80.952 80.6182 80.94 80.7382 80.94H81.4342C81.4342 80.956 81.4342 80.992 81.4342 81.048C81.4342 81.096 81.4342 81.168 81.4342 81.264V82.212H82.5622V82.824H81.4342V85.692C81.4342 86.004 81.4662 86.228 81.5302 86.364C81.5942 86.492 81.7462 86.556 81.9862 86.556C82.0662 86.556 82.1542 86.548 82.2502 86.532C82.3542 86.516 82.4262 86.5 82.4662 86.484V86.952C82.4182 86.96 82.3142 86.976 82.1542 87C81.9942 87.024 81.7982 87.036 81.5662 87.036ZM83.6944 86.604C83.6944 86.42 83.7544 86.308 83.8744 86.268C83.9944 86.22 84.1384 86.196 84.3064 86.196C84.4744 86.196 84.6104 86.22 84.7144 86.268C84.8264 86.308 84.8824 86.42 84.8824 86.604C84.8824 86.732 84.8544 86.828 84.7984 86.892C84.7504 86.948 84.6824 86.984 84.5944 87C84.5064 87.016 84.4064 87.024 84.2944 87.024C84.1824 87.024 84.0824 87.016 83.9944 87C83.9064 86.984 83.8344 86.948 83.7784 86.892C83.7224 86.828 83.6944 86.732 83.6944 86.604ZM95.0871 84.528C95.0871 84.904 95.0671 85.248 95.0271 85.56C94.9951 85.872 94.8871 86.14 94.7031 86.364C94.5271 86.58 94.2431 86.748 93.8511 86.868C93.4671 86.98 92.9231 87.036 92.2191 87.036C91.6591 87.036 91.1991 87 90.8391 86.928C90.4871 86.848 90.2111 86.736 90.0111 86.592C89.8191 86.448 89.6791 86.28 89.5911 86.088C89.5031 85.888 89.4511 85.664 89.4351 85.416C89.4191 85.16 89.4111 84.892 89.4111 84.612V82.08C89.4111 81.912 89.4151 81.788 89.4231 81.708C89.4311 81.62 89.4671 81.56 89.5311 81.528C89.6031 81.496 89.7191 81.48 89.8791 81.48H90.6471V85.02C90.6471 85.372 90.6991 85.644 90.8031 85.836C90.9071 86.02 91.0751 86.148 91.3071 86.22C91.5471 86.292 91.8551 86.328 92.2311 86.328C92.8151 86.328 93.2311 86.228 93.4791 86.028C93.7271 85.828 93.8511 85.492 93.8511 85.02V81.48H94.6071C94.7671 81.48 94.8791 81.496 94.9431 81.528C95.0151 81.56 95.0551 81.62 95.0631 81.708C95.0791 81.788 95.0871 81.912 95.0871 82.08V84.528ZM98.3928 87.048C98.2408 87.048 98.0608 87.044 97.8528 87.036C97.6448 87.028 97.4328 87.012 97.2168 86.988C97.0088 86.956 96.8208 86.912 96.6528 86.856C96.5488 86.832 96.4648 86.8 96.4008 86.76C96.3448 86.72 96.3008 86.652 96.2688 86.556C96.2448 86.452 96.2328 86.296 96.2328 86.088C96.4328 86.176 96.6568 86.248 96.9048 86.304C97.1528 86.352 97.3968 86.384 97.6368 86.4C97.8848 86.416 98.0968 86.424 98.2728 86.424C98.4888 86.424 98.7008 86.416 98.9088 86.4C99.1248 86.384 99.3208 86.348 99.4968 86.292C99.6808 86.236 99.8248 86.148 99.9288 86.028C100.041 85.908 100.097 85.744 100.097 85.536C100.097 85.256 100.025 85.076 99.8808 84.996C99.7368 84.916 99.5368 84.876 99.2808 84.876H98.0208C97.7088 84.876 97.4168 84.856 97.1448 84.816C96.8808 84.776 96.6648 84.672 96.4968 84.504C96.3368 84.336 96.2568 84.052 96.2568 83.652C96.2568 83.212 96.3648 82.884 96.5808 82.668C96.7968 82.452 97.1008 82.312 97.4928 82.248C97.8928 82.184 98.3608 82.152 98.8968 82.152C99.0968 82.152 99.3288 82.156 99.5928 82.164C99.8648 82.172 100.117 82.196 100.349 82.236C100.541 82.252 100.693 82.284 100.805 82.332C100.925 82.372 101.013 82.432 101.069 82.512C101.125 82.584 101.153 82.696 101.153 82.848V83.124C101.081 83.036 100.957 82.972 100.781 82.932C100.605 82.884 100.397 82.848 100.157 82.824C99.9248 82.8 99.6808 82.788 99.4248 82.788C99.1768 82.78 98.9448 82.776 98.7288 82.776C98.4968 82.776 98.2728 82.792 98.0568 82.824C97.8488 82.848 97.6808 82.916 97.5528 83.028C97.4248 83.14 97.3608 83.324 97.3608 83.58C97.3608 83.78 97.4008 83.924 97.4808 84.012C97.5608 84.1 97.6728 84.156 97.8168 84.18C97.9608 84.204 98.1248 84.216 98.3088 84.216H99.6288C99.9488 84.216 100.229 84.244 100.469 84.3C100.709 84.356 100.897 84.476 101.033 84.66C101.169 84.844 101.237 85.132 101.237 85.524C101.237 85.972 101.113 86.304 100.865 86.52C100.617 86.736 100.281 86.88 99.8568 86.952C99.4328 87.016 98.9448 87.048 98.3928 87.048ZM104.569 87.072C104.081 87.072 103.669 87.04 103.333 86.976C103.005 86.912 102.741 86.792 102.541 86.616C102.349 86.44 102.213 86.196 102.133 85.884C102.053 85.572 102.013 85.168 102.013 84.672C102.013 84.08 102.089 83.6 102.241 83.232C102.393 82.864 102.661 82.596 103.045 82.428C103.437 82.252 103.981 82.164 104.677 82.164C105.221 82.164 105.653 82.232 105.973 82.368C106.301 82.496 106.537 82.7 106.681 82.98C106.825 83.26 106.897 83.616 106.897 84.048V84.816H103.525C103.525 84.688 103.553 84.584 103.609 84.504C103.665 84.424 103.769 84.384 103.921 84.384H105.889L105.877 84.072C105.869 83.624 105.773 83.296 105.589 83.088C105.413 82.88 105.093 82.776 104.629 82.776C104.245 82.776 103.945 82.836 103.729 82.956C103.513 83.076 103.361 83.272 103.273 83.544C103.185 83.808 103.141 84.176 103.141 84.648C103.141 85.136 103.189 85.508 103.285 85.764C103.389 86.012 103.557 86.18 103.789 86.268C104.029 86.356 104.361 86.4 104.785 86.4C104.937 86.4 105.113 86.396 105.313 86.388C105.521 86.38 105.729 86.368 105.937 86.352C106.153 86.336 106.345 86.316 106.513 86.292C106.681 86.268 106.793 86.244 106.849 86.22V86.388C106.849 86.476 106.829 86.564 106.789 86.652C106.749 86.74 106.665 86.812 106.537 86.868C106.369 86.948 106.121 87 105.793 87.024C105.473 87.056 105.065 87.072 104.569 87.072ZM111.363 87V81.996C111.363 81.868 111.367 81.768 111.375 81.696C111.383 81.624 111.419 81.572 111.483 81.54C111.547 81.5 111.647 81.48 111.783 81.48H116.775V82.164H112.599V83.784H116.427V84.468H112.599V87H111.363ZM119.975 87.072C119.479 87.072 119.075 87.048 118.763 87C118.451 86.96 118.211 86.884 118.043 86.772C117.875 86.66 117.759 86.508 117.695 86.316C117.639 86.124 117.611 85.884 117.611 85.596C117.611 85.188 117.655 84.88 117.743 84.672C117.839 84.456 117.999 84.308 118.223 84.228C118.455 84.148 118.763 84.108 119.147 84.108C119.347 84.108 119.567 84.112 119.807 84.12C120.055 84.128 120.291 84.14 120.515 84.156C120.747 84.164 120.947 84.176 121.115 84.192C121.291 84.208 121.407 84.228 121.463 84.252C121.463 83.916 121.435 83.652 121.379 83.46C121.323 83.268 121.231 83.124 121.103 83.028C120.983 82.932 120.831 82.868 120.647 82.836C120.463 82.804 120.247 82.788 119.999 82.788C119.727 82.788 119.455 82.796 119.183 82.812C118.919 82.828 118.667 82.856 118.427 82.896C118.195 82.936 118.003 82.988 117.851 83.052V82.824C117.851 82.64 117.899 82.508 117.995 82.428C118.099 82.348 118.223 82.296 118.367 82.272C118.527 82.232 118.763 82.2 119.075 82.176C119.387 82.152 119.719 82.144 120.071 82.152C120.519 82.152 120.899 82.176 121.211 82.224C121.531 82.264 121.787 82.352 121.979 82.488C122.179 82.624 122.323 82.828 122.411 83.1C122.507 83.372 122.555 83.736 122.555 84.192V86.64C122.483 86.792 122.239 86.904 121.823 86.976C121.407 87.04 120.791 87.072 119.975 87.072ZM119.975 86.568C120.295 86.568 120.555 86.56 120.755 86.544C120.963 86.52 121.123 86.492 121.235 86.46C121.347 86.42 121.423 86.372 121.463 86.316V84.66C121.391 84.636 121.263 84.616 121.079 84.6C120.895 84.576 120.703 84.556 120.503 84.54C120.303 84.524 120.135 84.516 119.999 84.516C119.703 84.516 119.463 84.536 119.279 84.576C119.095 84.616 118.963 84.708 118.883 84.852C118.803 84.996 118.763 85.22 118.763 85.524C118.763 85.772 118.791 85.972 118.847 86.124C118.903 86.276 119.015 86.388 119.183 86.46C119.359 86.532 119.623 86.568 119.975 86.568ZM125.627 87.048C125.475 87.048 125.295 87.044 125.087 87.036C124.879 87.028 124.667 87.012 124.451 86.988C124.243 86.956 124.055 86.912 123.887 86.856C123.783 86.832 123.699 86.8 123.635 86.76C123.579 86.72 123.535 86.652 123.503 86.556C123.479 86.452 123.467 86.296 123.467 86.088C123.667 86.176 123.891 86.248 124.139 86.304C124.387 86.352 124.631 86.384 124.871 86.4C125.119 86.416 125.331 86.424 125.507 86.424C125.723 86.424 125.935 86.416 126.143 86.4C126.359 86.384 126.555 86.348 126.731 86.292C126.915 86.236 127.059 86.148 127.163 86.028C127.275 85.908 127.331 85.744 127.331 85.536C127.331 85.256 127.259 85.076 127.115 84.996C126.971 84.916 126.771 84.876 126.515 84.876H125.255C124.943 84.876 124.651 84.856 124.379 84.816C124.115 84.776 123.899 84.672 123.731 84.504C123.571 84.336 123.491 84.052 123.491 83.652C123.491 83.212 123.599 82.884 123.815 82.668C124.031 82.452 124.335 82.312 124.727 82.248C125.127 82.184 125.595 82.152 126.131 82.152C126.331 82.152 126.563 82.156 126.827 82.164C127.099 82.172 127.351 82.196 127.583 82.236C127.775 82.252 127.927 82.284 128.039 82.332C128.159 82.372 128.247 82.432 128.303 82.512C128.359 82.584 128.387 82.696 128.387 82.848V83.124C128.315 83.036 128.191 82.972 128.015 82.932C127.839 82.884 127.631 82.848 127.391 82.824C127.159 82.8 126.915 82.788 126.659 82.788C126.411 82.78 126.179 82.776 125.963 82.776C125.731 82.776 125.507 82.792 125.291 82.824C125.083 82.848 124.915 82.916 124.787 83.028C124.659 83.14 124.595 83.324 124.595 83.58C124.595 83.78 124.635 83.924 124.715 84.012C124.795 84.1 124.907 84.156 125.051 84.18C125.195 84.204 125.359 84.216 125.543 84.216H126.863C127.183 84.216 127.463 84.244 127.703 84.3C127.943 84.356 128.131 84.476 128.267 84.66C128.403 84.844 128.471 85.132 128.471 85.524C128.471 85.972 128.347 86.304 128.099 86.52C127.851 86.736 127.515 86.88 127.091 86.952C126.667 87.016 126.179 87.048 125.627 87.048ZM130.832 87.036C130.512 87.036 130.26 87 130.076 86.928C129.9 86.856 129.772 86.728 129.692 86.544C129.612 86.36 129.572 86.112 129.572 85.8V82.824H129.092V82.212H129.572V81.42C129.572 81.276 129.584 81.172 129.608 81.108C129.632 81.036 129.672 80.992 129.728 80.976C129.792 80.952 129.884 80.94 130.004 80.94H130.7C130.7 80.956 130.7 80.992 130.7 81.048C130.7 81.096 130.7 81.168 130.7 81.264V82.212H131.828V82.824H130.7V85.692C130.7 86.004 130.732 86.228 130.796 86.364C130.86 86.492 131.012 86.556 131.252 86.556C131.332 86.556 131.42 86.548 131.516 86.532C131.62 86.516 131.692 86.5 131.732 86.484V86.952C131.684 86.96 131.58 86.976 131.42 87C131.26 87.024 131.064 87.036 130.832 87.036ZM135.038 87.072C134.55 87.072 134.138 87.04 133.802 86.976C133.474 86.912 133.21 86.792 133.01 86.616C132.818 86.44 132.682 86.196 132.602 85.884C132.522 85.572 132.482 85.168 132.482 84.672C132.482 84.08 132.558 83.6 132.71 83.232C132.862 82.864 133.13 82.596 133.514 82.428C133.906 82.252 134.45 82.164 135.146 82.164C135.69 82.164 136.122 82.232 136.442 82.368C136.77 82.496 137.006 82.7 137.15 82.98C137.294 83.26 137.366 83.616 137.366 84.048V84.816H133.994C133.994 84.688 134.022 84.584 134.078 84.504C134.134 84.424 134.238 84.384 134.39 84.384H136.358L136.346 84.072C136.338 83.624 136.242 83.296 136.058 83.088C135.882 82.88 135.562 82.776 135.098 82.776C134.714 82.776 134.414 82.836 134.198 82.956C133.982 83.076 133.83 83.272 133.742 83.544C133.654 83.808 133.61 84.176 133.61 84.648C133.61 85.136 133.658 85.508 133.754 85.764C133.858 86.012 134.026 86.18 134.258 86.268C134.498 86.356 134.83 86.4 135.254 86.4C135.406 86.4 135.582 86.396 135.782 86.388C135.99 86.38 136.198 86.368 136.406 86.352C136.622 86.336 136.814 86.316 136.982 86.292C137.15 86.268 137.262 86.244 137.318 86.22V86.388C137.318 86.476 137.298 86.564 137.258 86.652C137.218 86.74 137.134 86.812 137.006 86.868C136.838 86.948 136.59 87 136.262 87.024C135.942 87.056 135.534 87.072 135.038 87.072ZM139.556 87H138.788C138.668 87 138.576 86.968 138.512 86.904C138.448 86.84 138.416 86.72 138.416 86.544V82.452C138.608 82.396 138.876 82.336 139.22 82.272C139.564 82.208 139.976 82.176 140.456 82.176C140.928 82.176 141.3 82.208 141.572 82.272C141.844 82.328 142.044 82.416 142.172 82.536C142.308 82.648 142.392 82.788 142.424 82.956C142.464 83.116 142.484 83.304 142.484 83.52H141.404L141.392 83.352C141.392 83.16 141.34 83.024 141.236 82.944C141.14 82.856 141.024 82.8 140.888 82.776C140.752 82.752 140.616 82.74 140.48 82.74C140.272 82.74 140.084 82.76 139.916 82.8C139.756 82.84 139.636 82.892 139.556 82.956V87ZM142.862 86.604C142.862 86.42 142.922 86.308 143.042 86.268C143.162 86.22 143.306 86.196 143.474 86.196C143.642 86.196 143.778 86.22 143.882 86.268C143.994 86.308 144.05 86.42 144.05 86.604C144.05 86.732 144.022 86.828 143.966 86.892C143.918 86.948 143.85 86.984 143.762 87C143.674 87.016 143.574 87.024 143.462 87.024C143.35 87.024 143.25 87.016 143.162 87C143.074 86.984 143.002 86.948 142.946 86.892C142.89 86.828 142.862 86.732 142.862 86.604Z" fill="black"/>
</svg>
